<svg width="35" height="35" viewBox="0 0 35 35" fill="none" xmlns="http://www.w3.org/2000/svg">
<path d="M17.5 0C7.85044 0 0 7.85044 0 17.5C0 27.1496 7.85044 35 17.5 35C27.1496 35 35 27.1496 35 17.5C35 7.85044 27.1496 0 17.5 0ZM29.0705 8.07018C31.1523 10.6137 32.413 13.8534 32.4459 17.3815C31.9531 17.2773 27.0112 16.2749 22.0375 16.9004C21.6316 15.9096 21.2485 15.038 20.7238 13.9639C26.2505 11.7075 28.7553 8.49646 29.0705 8.07018ZM27.4087 6.34163C27.1399 6.72459 24.8898 9.74891 19.5746 11.7412C17.1252 7.24084 14.4103 3.54382 13.9972 2.99059C18.7374 1.84794 23.7327 3.08021 27.4087 6.34163ZM11.145 3.99536C11.5391 4.53582 14.2102 8.23742 16.687 12.6402C9.69493 14.4969 3.53655 14.4702 2.86802 14.4614C3.8373 9.82293 6.96316 5.96785 11.145 3.99536ZM2.55232 17.5228C2.55232 17.3699 2.55535 17.2178 2.55994 17.066C3.21393 17.0794 10.4575 17.1728 17.9223 14.9388C18.3502 15.7762 18.7589 16.6263 19.1341 17.4755C13.729 18.9979 8.81802 23.3696 6.39505 27.5173C4.00764 24.8673 2.55232 21.362 2.55232 17.5228ZM8.32499 29.315C9.88637 26.1232 14.1238 22.003 20.1501 19.9472C22.2487 25.4006 23.1166 29.9711 23.3389 31.2825C18.5326 33.3298 12.7531 32.7681 8.32499 29.315ZM25.8518 29.9141C25.6986 29.0048 24.903 24.629 22.9479 19.2565C27.632 18.5067 31.7473 19.7341 32.2587 19.8955C31.5924 24.0546 29.2052 27.6465 25.8518 29.9141Z" fill="black"/>
</svg>
