<svg width="35" height="35" viewBox="0 0 35 35" fill="none" xmlns="http://www.w3.org/2000/svg">
<path d="M31.4024 8.72262C31.4246 9.10542 31.4246 9.4883 31.4246 9.87109C31.4246 21.5468 24.207 35 11.0153 35C6.95115 35 3.17578 33.5507 0 31.0352C0.577434 31.1172 1.13258 31.1445 1.73223 31.1445C5.08562 31.1445 8.1726 29.75 10.6377 27.3711C7.48415 27.2891 4.84137 24.7461 3.93082 21.2461C4.37502 21.3281 4.81915 21.3828 5.28557 21.3828C5.92958 21.3828 6.57367 21.2734 7.17325 21.082C3.88645 20.2617 1.42127 16.707 1.42127 12.414V12.3047C2.37618 12.961 3.48668 13.3711 4.66363 13.4257C2.73151 11.8398 1.4657 9.13277 1.4657 6.07025C1.4657 4.42966 1.82096 2.92575 2.44283 1.61324C5.97395 6.97261 11.2817 10.4726 17.2335 10.8554C17.1224 10.1992 17.0558 9.51565 17.0558 8.83204C17.0558 3.9648 20.2538 0 24.229 0C26.2944 0 28.1599 1.0664 29.4702 2.78906C31.0913 2.40627 32.6459 1.66795 34.0229 0.656255C33.4898 2.70708 32.3572 4.42974 30.8693 5.52341C32.3129 5.3321 33.712 4.8398 35 4.15628C34.023 5.90621 32.8015 7.46474 31.4024 8.72262Z" fill="black"/>
</svg>
